<?xml version="1.0" encoding="UTF-8" standalone="no"?>
<!-- Created with Inkscape (http://www.inkscape.org/) -->

<svg
   xmlns:sketch="http://www.bohemiancoding.com/sketch/ns"
   xmlns:dc="http://purl.org/dc/elements/1.1/"
   xmlns:cc="http://creativecommons.org/ns#"
   xmlns:rdf="http://www.w3.org/1999/02/22-rdf-syntax-ns#"
   xmlns:svg="http://www.w3.org/2000/svg"
   xmlns="http://www.w3.org/2000/svg"
   xmlns:sodipodi="http://sodipodi.sourceforge.net/DTD/sodipodi-0.dtd"
   xmlns:inkscape="http://www.inkscape.org/namespaces/inkscape"
   width="96"
   height="96"
   id="svg6517"
   version="1.1"
   inkscape:version="0.91 r13725"
   sodipodi:docname="icon.svg">
  <defs
     id="defs6519">
    <linearGradient
       id="Background">
      <stop
         id="stop4178"
         offset="0"
         style="stop-color:#b8b8b8;stop-opacity:1" />
      <stop
         id="stop4180"
         offset="1"
         style="stop-color:#c9c9c9;stop-opacity:1" />
    </linearGradient>
    <filter
       style="color-interpolation-filters:sRGB;"
       inkscape:label="Inner Shadow"
       id="filter1121">
      <feFlood
         flood-opacity="0.59999999999999998"
         flood-color="rgb(0,0,0)"
         result="flood"
         id="feFlood1123" />
      <feComposite
         in="flood"
         in2="SourceGraphic"
         operator="out"
         result="composite1"
         id="feComposite1125" />
      <feGaussianBlur
         in="composite1"
         stdDeviation="1"
         result="blur"
         id="feGaussianBlur1127" />
      <feOffset
         dx="0"
         dy="2"
         result="offset"
         id="feOffset1129" />
      <feComposite
         in="offset"
         in2="SourceGraphic"
         operator="atop"
         result="composite2"
         id="feComposite1131" />
    </filter>
    <filter
       style="color-interpolation-filters:sRGB;"
       inkscape:label="Drop Shadow"
       id="filter950">
      <feFlood
         flood-opacity="0.25"
         flood-color="rgb(0,0,0)"
         result="flood"
         id="feFlood952" />
      <feComposite
         in="flood"
         in2="SourceGraphic"
         operator="in"
         result="composite1"
         id="feComposite954" />
      <feGaussianBlur
         in="composite1"
         stdDeviation="1"
         result="blur"
         id="feGaussianBlur956" />
      <feOffset
         dx="0"
         dy="1"
         result="offset"
         id="feOffset958" />
      <feComposite
         in="SourceGraphic"
         in2="offset"
         operator="over"
         result="composite2"
         id="feComposite960" />
    </filter>
    <clipPath
       clipPathUnits="userSpaceOnUse"
       id="clipPath873">
      <g
         transform="matrix(0,-0.66666667,0.66604479,0,-258.25992,677.00001)"
         id="g875"
         inkscape:label="Layer 1"
         style="fill:#ff00ff;fill-opacity:1;stroke:none;display:inline">
        <path
           style="fill:#ff00ff;fill-opacity:1;stroke:none;display:inline"
           d="m 46.702703,898.22775 50.594594,0 C 138.16216,898.22775 144,904.06497 144,944.92583 l 0,50.73846 c 0,40.86071 -5.83784,46.69791 -46.702703,46.69791 l -50.594594,0 C 5.8378378,1042.3622 0,1036.525 0,995.66429 L 0,944.92583 C 0,904.06497 5.8378378,898.22775 46.702703,898.22775 Z"
           id="path877"
           inkscape:connector-curvature="0"
           sodipodi:nodetypes="sssssssss" />
      </g>
    </clipPath>
    <filter
       inkscape:collect="always"
       id="filter891"
       inkscape:label="Badge Shadow">
      <feGaussianBlur
         inkscape:collect="always"
         stdDeviation="0.71999962"
         id="feGaussianBlur893" />
    </filter>
  </defs>
  <sodipodi:namedview
     id="base"
     pagecolor="#ffffff"
     bordercolor="#666666"
     borderopacity="1.0"
     inkscape:pageopacity="0.0"
     inkscape:pageshadow="2"
     inkscape:zoom="4.0745362"
     inkscape:cx="-24.435003"
     inkscape:cy="49.018169"
     inkscape:document-units="px"
     inkscape:current-layer="layer3"
     showgrid="true"
     fit-margin-top="0"
     fit-margin-left="0"
     fit-margin-right="0"
     fit-margin-bottom="0"
     inkscape:window-width="1920"
     inkscape:window-height="1041"
     inkscape:window-x="0"
     inkscape:window-y="17"
     inkscape:window-maximized="1"
     showborder="true"
     showguides="true"
     inkscape:guide-bbox="true"
     inkscape:showpageshadow="false">
    <inkscape:grid
       type="xygrid"
       id="grid821" />
    <sodipodi:guide
       orientation="1,0"
       position="16,48"
       id="guide823" />
    <sodipodi:guide
       orientation="0,1"
       position="64,80"
       id="guide825" />
    <sodipodi:guide
       orientation="1,0"
       position="80,40"
       id="guide827" />
    <sodipodi:guide
       orientation="0,1"
       position="64,16"
       id="guide829" />
  </sodipodi:namedview>
  <metadata
     id="metadata6522">
    <rdf:RDF>
      <cc:Work
         rdf:about="">
        <dc:format>image/svg+xml</dc:format>
        <dc:type
           rdf:resource="http://purl.org/dc/dcmitype/StillImage" />
        <dc:title></dc:title>
      </cc:Work>
    </rdf:RDF>
  </metadata>
  <g
     inkscape:label="BACKGROUND"
     inkscape:groupmode="layer"
     id="layer1"
     transform="translate(268,-635.29076)"
     style="display:inline">
    <path
       style="fill:#eaeaea;fill-opacity:1;stroke:none;display:inline;filter:url(#filter1121)"
       d="m -268,700.15563 0,-33.72973 c 0,-27.24324 3.88785,-31.13513 31.10302,-31.13513 l 33.79408,0 c 27.21507,0 31.1029,3.89189 31.1029,31.13513 l 0,33.72973 c 0,27.24325 -3.88783,31.13514 -31.1029,31.13514 l -33.79408,0 C -264.11215,731.29077 -268,727.39888 -268,700.15563 Z"
       id="path6455"
       inkscape:connector-curvature="0"
       sodipodi:nodetypes="sssssssss" />
  </g>
  <g
     inkscape:groupmode="layer"
     id="layer3"
     inkscape:label="Odoo"
     style="display:inline">
    <g
       style="display:inline;fill:#888888;fill-rule:evenodd;stroke:none;stroke-width:1"
       sketch:type="MSShapeGroup"
       transform="matrix(0.23130271,0,0,0.23360203,49.270869,5.0121908)"
       id="D">
      <g
         id="d-+-Rectangle-1" />
    </g>
    <g
       id="g4335"
       transform="matrix(0.76654968,0,0,0.75313581,11.810396,9.5818389)">
      <path
         d="m 151.13037,122.77027 c 0.002,0.19817 0.002,0.39653 0.002,0.59506 0,41.69749 -33.8025,75.5 -75.499997,75.5 -41.697498,0 -75.49999968,-33.80251 -75.49999968,-75.5 0,-41.697502 33.80250168,-75.500003 75.49999968,-75.500003 17.094365,0 32.861827,5.68113 45.517327,15.258325 l 0,-48.119574 C 121.14999,6.7175544 127.8639,0 136.14999,0 c 8.28427,0 15,6.723811 15,15.004078 l 0,106.991842 c 0,0.25971 -0.007,0.51788 -0.0196,0.77435 l 0,0 z m -75.497707,45.09506 c 24.576667,0 44.499997,-19.92333 44.499997,-44.5 0,-24.576675 -19.92333,-44.500003 -44.499997,-44.500003 -24.576671,0 -44.5,19.923328 -44.5,44.500003 0,24.57667 19.923329,44.5 44.5,44.5 z"
         id="d"
         inkscape:connector-curvature="0"
         style="display:inline;fill:#888888;fill-rule:evenodd;stroke:none;stroke-width:1"
         transform="matrix(0.23130271,0,0,0.23360203,49.270869,5.0121908)" />
      <path
         d="m 27.225193,51.039046 c 9.43768,0 17.088437,-7.815582 17.088437,-17.456587 0,-9.641011 -7.650757,-17.456593 -17.088437,-17.456593 -9.43769,0 -17.08845,7.815582 -17.08845,17.456593 0,9.641005 7.65076,17.456587 17.08845,17.456587 z m -0.15673,-7.097662 c 5.56261,0 10.07199,-4.60653 10.07199,-10.288984 0,-5.682443 -4.50938,-10.288979 -10.07199,-10.288979 -5.56261,0 -10.072,4.606536 -10.072,10.288979 0,5.682454 4.50939,10.288984 10.072,10.288984 z"
         id="Oval-1"
         sketch:type="MSShapeGroup"
         inkscape:connector-curvature="0"
         style="display:inline;fill:#9c5789;fill-rule:evenodd;stroke:none;stroke-width:1" />
      <path
         d="m 66.620355,91.35163 c 9.57324,0 17.33387,-7.870521 17.33387,-17.579296 0,-9.708779 -7.76063,-17.579298 -17.33387,-17.579298 -9.57323,0 -17.33387,7.870519 -17.33387,17.579298 0,9.708775 7.76064,17.579296 17.33387,17.579296 z m 0,-7.217988 c 5.6425,0 10.21665,-4.638917 10.21665,-10.361308 0,-5.722393 -4.57415,-10.361308 -10.21665,-10.361308 -5.6425,0 -10.21665,4.638915 -10.21665,10.361308 0,5.722391 4.57415,10.361308 10.21665,10.361308 z"
         id="Oval-2"
         sketch:type="MSShapeGroup"
         inkscape:connector-curvature="0"
         style="fill:#888888;fill-rule:evenodd;stroke:none;stroke-width:1" />
      <path
         d="m 26.923723,91.505591 c 9.57324,0 17.33387,-7.870521 17.33387,-17.579296 0,-9.708779 -7.76063,-17.579298 -17.33387,-17.579298 -9.57323,0 -17.3338696,7.870519 -17.3338696,17.579298 0,9.708775 7.7606396,17.579296 17.3338696,17.579296 z m 0,-7.217988 c 5.6425,0 10.21665,-4.638917 10.21665,-10.361308 0,-5.722393 -4.57415,-10.361308 -10.21665,-10.361308 -5.6425,0 -10.21665,4.638915 -10.21665,10.361308 0,5.722391 4.57415,10.361308 10.21665,10.361308 z"
         id="Oval-2-3"
         sketch:type="MSShapeGroup"
         inkscape:connector-curvature="0"
         style="display:inline;fill:#888888;fill-rule:evenodd;stroke:none;stroke-width:1" />
    </g>
  </g>
  <g
     inkscape:groupmode="layer"
     id="layer2"
     inkscape:label="BADGE"
     style="display:none"
     sodipodi:insensitive="true">
    <g
       style="display:inline"
       transform="translate(-340.00001,-581)"
       id="g4394"
       clip-path="none">
      <g
         id="g855">
        <g
           inkscape:groupmode="maskhelper"
           id="g870"
           clip-path="url(#clipPath873)"
           style="opacity:0.6;filter:url(#filter891)">
          <circle
             transform="matrix(1.4999992,0,0,1.4999992,-29.999795,-237.54282)"
             id="path844"
             style="color:#000000;display:inline;overflow:visible;visibility:visible;fill:#000000;fill-opacity:1;fill-rule:nonzero;stroke:none;stroke-width:4;marker:none;enable-background:accumulate"
             cx="252"
             cy="552.36218"
             r="12" />
        </g>
        <g
           id="g862">
          <circle
             style="color:#000000;display:inline;overflow:visible;visibility:visible;fill:#f5f5f5;fill-opacity:1;fill-rule:nonzero;stroke:none;stroke-width:4;marker:none;enable-background:accumulate"
             id="path4398"
             transform="matrix(1.4999992,0,0,1.4999992,-29.999795,-238.54282)"
             cx="252"
             cy="552.36218"
             r="12" />
          <circle
             transform="matrix(1.25,0,0,1.25,33,-100.45273)"
             id="path4400"
             style="color:#000000;display:inline;overflow:visible;visibility:visible;fill:#dd4814;fill-opacity:1;fill-rule:nonzero;stroke:none;stroke-width:4;marker:none;enable-background:accumulate"
             cx="252"
             cy="552.36218"
             r="12" />
          <path
             sodipodi:type="star"
             style="color:#000000;display:inline;overflow:visible;visibility:visible;fill:#f5f5f5;fill-opacity:1;fill-rule:nonzero;stroke:none;stroke-width:3;marker:none;enable-background:accumulate"
             id="path4459"
             sodipodi:sides="5"
             sodipodi:cx="666.19574"
             sodipodi:cy="589.50385"
             sodipodi:r1="7.2431178"
             sodipodi:r2="4.3458705"
             sodipodi:arg1="1.0471976"
             sodipodi:arg2="1.6755161"
             inkscape:flatsided="false"
             inkscape:rounded="0.1"
             inkscape:randomized="0"
             d="m 669.8173,595.77657 c -0.39132,0.22593 -3.62645,-1.90343 -4.07583,-1.95066 -0.44938,-0.0472 -4.05653,1.36297 -4.39232,1.06062 -0.3358,-0.30235 0.68963,-4.03715 0.59569,-4.47913 -0.0939,-0.44198 -2.5498,-3.43681 -2.36602,-3.8496 0.18379,-0.41279 4.05267,-0.59166 4.44398,-0.81759 0.39132,-0.22593 2.48067,-3.48704 2.93005,-3.4398 0.44938,0.0472 1.81505,3.67147 2.15084,3.97382 0.3358,0.30236 4.08294,1.2817 4.17689,1.72369 0.0939,0.44198 -2.9309,2.86076 -3.11469,3.27355 -0.18379,0.41279 0.0427,4.27917 -0.34859,4.5051 z"
             transform="matrix(1.511423,-0.16366377,0.16366377,1.511423,-755.37346,-191.93651)" />
        </g>
      </g>
    </g>
  </g>
</svg>
